<svg id="present" xmlns="http://www.w3.org/2000/svg" width="16.212" height="22.138" viewBox="0 0 16.212 22.138">
  <path id="パス_2" data-name="パス 2" d="M161.571,107.644h-6.05a.692.692,0,0,0-.692.693v5.085h6.742v-5.777Z" transform="translate(-154.829 -100.375)" fill="#fff"/>
  <path id="パス_3" data-name="パス 3" d="M290.239,113.421h6.742v-5.085a.692.692,0,0,0-.692-.693h-6.05v5.777Z" transform="translate(-281.095 -100.375)" fill="#fff"/>
  <path id="パス_4" data-name="パス 4" d="M155.52,228.8h6.05v-5.777h-6.742v5.085A.691.691,0,0,0,155.52,228.8Z" transform="translate(-154.828 -207.963)" fill="#fff"/>
  <path id="パス_5" data-name="パス 5" d="M290.238,228.8h6.05a.691.691,0,0,0,.692-.692v-5.085h-6.742V228.8Z" transform="translate(-281.095 -207.963)" fill="#fff"/>
  <path id="パス_6" data-name="パス 6" d="M172.99,4.464a5.163,5.163,0,0,0,1.892,1.393,6.694,6.694,0,0,0,2.721.557c.577,0,1.208,0,1.229,0s.653,0,1.23,0a6.856,6.856,0,0,0,2.139-.333,5.456,5.456,0,0,0,2.336-1.459,3.8,3.8,0,0,0,.673-1.01,2.765,2.765,0,0,0,.25-1.121,2.314,2.314,0,0,0-.126-.757,2.507,2.507,0,0,0-.4-.738,2.593,2.593,0,0,0-.946-.742A2.769,2.769,0,0,0,182.822,0a2.84,2.84,0,0,0-.892.144,2.968,2.968,0,0,0-1.217.775,3.731,3.731,0,0,0-.835,1.44c-.248.761-.988,2.487-1.009,2.53H178.8c-.021-.042-.762-1.768-1.01-2.53a3.952,3.952,0,0,0-.5-1.031,3.124,3.124,0,0,0-1.118-1A2.868,2.868,0,0,0,174.845,0a2.753,2.753,0,0,0-1.515.448,2.546,2.546,0,0,0-.595.547,2.513,2.513,0,0,0-.4.738,2.3,2.3,0,0,0-.125.757,2.636,2.636,0,0,0,.113.756A3.518,3.518,0,0,0,172.99,4.464ZM181,2.725A2.784,2.784,0,0,1,181.354,2a1.929,1.929,0,0,1,.691-.625,1.688,1.688,0,0,1,.777-.192,1.563,1.563,0,0,1,.861.253,1.322,1.322,0,0,1,.319.292,1.339,1.339,0,0,1,.214.393,1.113,1.113,0,0,1,.06.368,1.453,1.453,0,0,1-.064.417,2.334,2.334,0,0,1-.449.8A3.987,3.987,0,0,1,182.3,4.775a5.528,5.528,0,0,1-2.242.455l-.134,0A12.34,12.34,0,0,0,181,2.725Zm-7.553-.6h0a1.328,1.328,0,0,1,.214-.393,1.386,1.386,0,0,1,.512-.4,1.592,1.592,0,0,1,.669-.146,1.659,1.659,0,0,1,.521.084,1.786,1.786,0,0,1,.732.47,2.542,2.542,0,0,1,.564.987,12.345,12.345,0,0,0,1.074,2.5l-.133,0a5.68,5.68,0,0,1-1.771-.273A4.281,4.281,0,0,1,174,3.824a2.622,2.622,0,0,1-.465-.692,1.591,1.591,0,0,1-.148-.641A1.1,1.1,0,0,1,173.45,2.122Z" transform="translate(-171.032)" fill="#fff"/>
  <path id="パス_8" data-name="パス 8" d="M394.61,327.641l0,0,.018-.014Z" transform="translate(-378.419 -305.503)" fill="#fff"/>
</svg>
