<?xml version="1.0" encoding="utf-8"?>
<!-- Generator: Adobe Illustrator 24.1.2, SVG Export Plug-In . SVG Version: 6.00 Build 0)  -->
<svg version="1.1" id="レイヤー_1" xmlns="http://www.w3.org/2000/svg" xmlns:xlink="http://www.w3.org/1999/xlink" x="0px"
	 y="0px" viewBox="0 0 162 44" style="enable-background:new 0 0 162 44;" xml:space="preserve">
<style type="text/css">
	.st0{enable-background:new    ;}
	.st1{fill:#11B1DC;}
</style>
<g class="st0">
	<path class="st1" d="M2.4,22.5L2.4,22.5c0-7.1,5.4-13.1,13-13.1c4.4,0,7.1,1.2,9.7,3.4l-2.8,3.3c-1.9-1.7-3.9-2.7-7.1-2.7
		c-4.6,0-8.2,4.1-8.2,8.9v0.1c0,5.2,3.4,9,8.6,9c2.4,0,4.5-0.8,6.1-1.9v-4.7h-6.4v-3.9h10.7v10.6c-2.5,2.1-6,3.9-10.5,3.9
		C7.5,35.4,2.4,29.8,2.4,22.5z"/>
	<path class="st1" d="M31.3,8.9h4.7v4.1h-4.7V8.9z M31.4,16h4.4v19h-4.4V16z"/>
	<path class="st1" d="M39.7,16h4.7l5.1,14l5.1-14h4.6l-7.8,19.1h-3.9L39.7,16z"/>
	<path class="st1" d="M60.8,25.6L60.8,25.6c0-5.5,3.9-10,9.3-10c6,0,9.1,4.8,9.1,10.2c0,0.4,0,0.8-0.1,1.2h-14
		c0.5,3.1,2.7,4.8,5.5,4.8c2.1,0,3.6-0.8,5.1-2.3l2.6,2.3c-1.8,2.2-4.3,3.6-7.8,3.6C65,35.4,60.8,31.4,60.8,25.6z M74.9,24.2
		c-0.3-2.8-1.9-5-4.8-5c-2.7,0-4.5,2.1-4.9,5H74.9z"/>
	<path class="st1" d="M83.8,8.7h4.4V35h-4.4V8.7z"/>
	<path class="st1" d="M92.8,25.6L92.8,25.6c0-5.5,4.3-10,10.2-10c5.8,0,10.1,4.4,10.1,9.9v0.1c0,5.4-4.3,9.9-10.2,9.9
		C97.1,35.4,92.8,31,92.8,25.6z M108.7,25.6L108.7,25.6c0-3.4-2.4-6.2-5.8-6.2c-3.5,0-5.7,2.7-5.7,6v0.1c0,3.3,2.4,6.1,5.8,6.1
		C106.5,31.6,108.7,28.9,108.7,25.6z"/>
	<path class="st1" d="M117.5,38.6l1.6-3.3c2.1,1.3,4.2,2,6.8,2c3.9,0,6-2,6-5.8V30c-1.6,2.1-3.6,3.5-6.7,3.5c-4.5,0-8.6-3.3-8.6-8.9
		v-0.1c0-5.6,4.2-8.9,8.6-8.9c3.2,0,5.2,1.5,6.7,3.2V16h4.4v15.1c0,3.2-0.8,5.6-2.4,7.2c-1.7,1.7-4.4,2.6-7.8,2.6
		C122.8,40.8,119.9,40,117.5,38.6z M131.9,24.6L131.9,24.6c0-3.2-2.6-5.3-5.6-5.3c-3,0-5.4,2.1-5.4,5.2v0.1c0,3.1,2.4,5.2,5.4,5.2
		C129.4,29.8,131.9,27.7,131.9,24.6z"/>
	<path class="st1" d="M148.3,24.3h-6.9v-4h6.9v-6.8h4.1v6.8h6.9v4h-6.9v6.9h-4.1V24.3z"/>
</g>
</svg>
